<?xml version="1.0" encoding="UTF-8"?>
<svg id="a" data-name="Layer 1" xmlns="http://www.w3.org/2000/svg" width="356.29" height="136.45" viewBox="0 0 356.29 136.45">
  <defs>
    <style>
      .e {
        font-family: Consolas, Consolas;
      }

      .e, .f {
        font-size: 12px;
      }

      .g {
        fill: none;
      }

      .g, .h, .i {
        stroke: #000;
        stroke-miterlimit: 10;
      }

      .h {
        fill: #ff8b8b;
      }

      .f {
        font-family: Tahoma, Tahoma;
      }

      .i {
        fill: #8bffbc;
      }
    </style>
  </defs>
  <line class="g" x1="70.94" y1="89.36" x2="70.94" y2="124.37"/>
  <line id="b" data-name="source line" class="g" x1="71.26" y1="25.84" x2="192.68" y2="25.84"/>
  <line id="c" data-name="source line" class="g" x1="71.26" y1="106.87" x2="337.31" y2="106.87"/>
  <text class="e" transform="translate(28.07 28.12)"><tspan x="0" y="0">s1:</tspan></text>
  <text class="e" transform="translate(28.07 69.9)"><tspan x="0" y="0">s2:</tspan></text>
  <text class="e" transform="translate(28.07 110.62)"><tspan x="0" y="0">c:</tspan></text>
  <line class="g" x1="71.26" y1="8.33" x2="71.26" y2="43.34"/>
  <line class="g" x1="192.68" y1="8.33" x2="192.68" y2="43.34"/>
  <g>
    <circle class="i" cx="70.94" cy="25.84" r="13.56"/>
    <text class="f" transform="translate(67.67 29.39)"><tspan x="0" y="0">0</tspan></text>
  </g>
  <g>
    <circle class="i" cx="124.65" cy="25.84" r="13.56"/>
    <text class="f" transform="translate(121.37 29.39)"><tspan x="0" y="0">1</tspan></text>
  </g>
  <g>
    <circle class="i" cx="169.47" cy="25.84" r="13.56"/>
    <text class="f" transform="translate(166.19 29.39)"><tspan x="0" y="0">2</tspan></text>
  </g>
  <g>
    <circle class="i" cx="124.65" cy="106.87" r="13.56"/>
    <text class="f" transform="translate(121.37 110.41)"><tspan x="0" y="0">1</tspan></text>
  </g>
  <g>
    <circle class="i" cx="169.47" cy="106.87" r="13.56"/>
    <text class="f" transform="translate(166.19 110.41)"><tspan x="0" y="0">2</tspan></text>
  </g>
  <g>
    <circle class="i" cx="70.94" cy="106.87" r="13.56"/>
    <text class="f" transform="translate(67.67 110.41)"><tspan x="0" y="0">0</tspan></text>
  </g>
  <line id="d" data-name="source line" class="g" x1="71.26" y1="66.35" x2="337.31" y2="66.35"/>
  <line class="g" x1="337.31" y1="48.85" x2="337.31" y2="83.86"/>
  <line class="g" x1="71.26" y1="48.85" x2="71.26" y2="83.86"/>
  <g>
    <circle class="h" cx="257.66" cy="66.35" r="13.56"/>
    <text class="f" transform="translate(253.59 69.9)"><tspan x="0" y="0">D</tspan></text>
  </g>
  <g>
    <circle class="h" cx="315.81" cy="66.35" r="13.56"/>
    <text class="f" transform="translate(312.45 69.9)"><tspan x="0" y="0">E</tspan></text>
  </g>
  <g>
    <circle class="h" cx="104.27" cy="66.35" r="13.56"/>
    <text class="f" transform="translate(100.68 69.9)"><tspan x="0" y="0">A</tspan></text>
  </g>
  <g>
    <circle class="h" cx="150.91" cy="66.35" r="13.56"/>
    <text class="f" transform="translate(147.37 69.9)"><tspan x="0" y="0">B</tspan></text>
  </g>
  <g>
    <circle class="h" cx="204.28" cy="66.35" r="13.56"/>
    <text class="f" transform="translate(200.68 69.9)"><tspan x="0" y="0">C</tspan></text>
  </g>
  <g>
    <circle class="h" cx="257.66" cy="106.87" r="13.56"/>
    <text class="f" transform="translate(253.59 110.41)"><tspan x="0" y="0">D</tspan></text>
  </g>
  <g>
    <circle class="h" cx="315.81" cy="106.87" r="13.56"/>
    <text class="f" transform="translate(312.45 110.41)"><tspan x="0" y="0">E</tspan></text>
  </g>
  <g>
    <circle class="h" cx="204.28" cy="106.87" r="13.56"/>
    <text class="f" transform="translate(200.68 110.41)"><tspan x="0" y="0">C</tspan></text>
  </g>
  <line class="g" x1="337.31" y1="89.36" x2="337.31" y2="124.37"/>
</svg>